<?xml version="1.0" encoding="utf-8"?>
<!-- Generator: Adobe Illustrator 24.1.2, SVG Export Plug-In . SVG Version: 6.00 Build 0)  -->
<svg version="1.1" id="Layer_1" xmlns="http://www.w3.org/2000/svg" xmlns:xlink="http://www.w3.org/1999/xlink" x="0px" y="0px"
	 viewBox="0 0 282.8 50" style="enable-background:new 0 0 282.8 50;" xml:space="preserve">
<style type="text/css">
	.st0{fill:#ED5523;}
</style>
<g id="Group_268" transform="translate(-874.478 -89.91)">
	<g id="Group_166" transform="translate(956.541 99.698)">
		<g id="Group_162" transform="translate(0 0.083)">
			<path id="Path_173" class="st0" d="M-2.3,26.2c-0.4-0.3-0.6-0.7-0.6-1.2c0-0.8,0.6-1.5,1.4-1.5c0,0,0,0,0,0
				c0.3,0,0.7,0.1,0.9,0.3C1.8,26,4.9,27.1,8,27c3.6,0,6-1.9,6-4.6v-0.1c0-2.5-1.3-3.9-7-5.1C0.8,15.9-2,13.9-2,9.5V9.4
				C-2,5.2,1.7,2,6.8,2c3.1-0.1,6.1,0.8,8.6,2.7c0.4,0.3,0.6,0.7,0.7,1.2c0,0.8-0.7,1.5-1.5,1.5c0,0,0,0,0,0c-0.3,0-0.6-0.1-0.9-0.3
				c-2-1.5-4.5-2.4-7-2.4C3.2,4.8,1,6.7,1,9.1v0.1c0,2.5,1.4,4,7.3,5.2c6,1.3,8.8,3.5,8.8,7.6v0.1c0,4.6-3.9,7.6-9.2,7.6
				C4.2,29.8,0.6,28.5-2.3,26.2z"/>
		</g>
		<g id="Group_163" transform="translate(25.345)">
			<path id="Path_174" class="st0" d="M-4.7,16.1L-4.7,16.1C-4.9,8.4,1.1,2.2,8.6,2c0.1,0,0.3,0,0.4,0c8.2,0,13.7,6.4,13.7,13.9V16
				c0.2,7.5-5.8,13.8-13.4,14c-0.1,0-0.3,0-0.4,0C0.8,29.9-4.7,23.5-4.7,16.1z M19.6,16.1L19.6,16.1C19.6,9.9,15.2,4.8,9,4.8
				S-1.6,9.8-1.6,15.9V16c0,6.1,4.5,11.1,10.6,11.1S19.6,22.2,19.6,16.1L19.6,16.1z"/>
		</g>
		<g id="Group_164" transform="translate(56.05 0.499)">
			<path id="Path_175" class="st0" d="M2.3,4.8h-7.8c-0.8,0-1.4-0.6-1.4-1.4C-6.9,2.6-6.3,2-5.5,2h18.7c0.8,0,1.4,0.6,1.4,1.4
				c0,0.8-0.6,1.4-1.4,1.4H5.4v22.8c0,0.9-0.7,1.5-1.5,1.5c-0.8,0-1.5-0.7-1.5-1.5L2.3,4.8z"/>
		</g>
		<g id="Group_165" transform="translate(83.888 0.291)">
			<path id="Path_176" class="st0" d="M-9,3.6C-9,2.7-8.3,2-7.5,2C-6.7,2-6,2.6-5.9,3.5c0,0,0,0.1,0,0.1v24.3c0,0.8-0.6,1.5-1.5,1.6
				c-0.8,0-1.5-0.6-1.6-1.5c0,0,0-0.1,0-0.1V3.6z"/>
		</g>
	</g>
	<g id="Group_171" transform="translate(1059.168 99.781)">
		<g id="Group_167">
			<path id="Path_177" class="st0" d="M-9.4,26.4c-1-0.7-1.2-2.1-0.5-3.1c0.4-0.6,1.1-0.9,1.8-0.9c0.5,0,1,0.1,1.4,0.4
				c2.1,1.8,4.8,2.8,7.6,2.8c2.9,0,4.8-1.4,4.8-3.4v-0.1c0-1.9-1.1-3-6.1-4.1c-5.7-1.4-9-3.1-9-8.1V9.9C-9.4,5.2-5.6,2-0.2,2
				c3-0.1,6,0.8,8.6,2.5c0.7,0.4,1.1,1.1,1,1.9c0,1.2-1,2.2-2.2,2.2c0,0,0,0,0,0c-0.4,0-0.9-0.1-1.2-0.3c-1.8-1.3-4-2-6.2-2
				c-2.8,0-4.4,1.4-4.4,3.2v0.1c0,2.1,1.2,3,6.4,4.2c5.7,1.4,8.6,3.4,8.6,7.9v0.1c0,5-4,8.1-9.6,8.1C-2.9,29.8-6.5,28.6-9.4,26.4z"
				/>
		</g>
		<g id="Group_168" transform="translate(27.547 0.208)">
			<path id="Path_178" class="st0" d="M-12.3,4.4c0-1.3,1.1-2.4,2.4-2.4c0,0,0,0,0,0h0.5c1,0,1.9,0.5,2.5,1.4L6.5,20.9V4.3
				C6.5,3,7.6,2,8.9,2c1.3,0,2.3,1,2.3,2.3V27c0,1.3-1,2.3-2.3,2.3c0,0,0,0-0.1,0H8.7c-1,0-1.9-0.6-2.5-1.4L-7.7,10v17.1
				c0,1.3-1.1,2.3-2.3,2.3c-1.3,0-2.3-1-2.3-2.3L-12.3,4.4z"/>
		</g>
		<g id="Group_169" transform="translate(57.545)">
			<path id="Path_179" class="st0" d="M-14.2,26.3L-4.2,4C-3.7,2.8-2.6,2-1.3,2h0.2C0.2,2,1.3,2.8,1.7,4l10,22.4
				c0.2,0.3,0.3,0.7,0.3,1c0,1.2-0.9,2.2-2.2,2.3c0,0,0,0-0.1,0c-1,0-2-0.7-2.3-1.7l-2.2-5H-7.8l-2.3,5.2c-0.3,0.9-1.2,1.5-2.2,1.5
				c-1.2,0-2.2-0.9-2.2-2.1c0,0,0,0,0-0.1C-14.5,27-14.4,26.6-14.2,26.3z M3.5,18.7L-1.3,7.8L-6,18.7H3.5z"/>
		</g>
		<g id="Group_170" transform="translate(90.868 0.415)">
			<path id="Path_180" class="st0" d="M-16.9,4.4c0-1.3,1-2.4,2.3-2.4c0,0,0,0,0.1,0h8.2C0,2,4,5.6,4,11v0.1c0,6.1-4.9,9.2-10.8,9.2
				h-5.4v6.5c0,1.3-1.1,2.3-2.4,2.3c-1.3,0-2.3-1.1-2.3-2.3L-16.9,4.4z M-6.7,16c3.6,0,5.8-2,5.8-4.8v-0.1c0-3.2-2.3-4.8-5.8-4.8
				h-5.5V16H-6.7z"/>
		</g>
	</g>
	<g id="Group_173" transform="translate(893.581 89.91)">
		<g id="Group_172">
			<path id="Path_181" class="st0" d="M39,15.6L35.4,35c-1.2,6.1-7.3,6.1-7.3,6.1h-14c-6.1,0-5-6.1-5-6.1l3.7-19.5
				c1.2-6.1,7.3-6.1,7.3-6.1h14C40.2,9.5,39,15.6,39,15.6 M38.1,2.7H18.6c0,0-10.1,0-12,10.1l-4.7,25c0,0-1.9,10.1,8.2,10.1h19.5
				c0,0,10.1,0,12-10.1l4.7-25C46.3,12.8,48.2,2.7,38.1,2.7"/>
		</g>
	</g>
	<g id="Group_174" transform="translate(881.751 119.983)">
		<path id="Path_182" class="st0" d="M6.1,4.3H4.4c-1,0-1.9-0.9-1.8-1.9c0-1,0.8-1.8,1.8-1.8h1.7c1,0,1.9,0.9,1.8,1.9
			C8,3.5,7.1,4.3,6.1,4.3z"/>
	</g>
	<g id="Group_175" transform="translate(884.718 99.499)">
		<path id="Path_183" class="st0" d="M19.7,5.8H4.2c-1,0-1.9-0.8-1.9-1.9S3.2,2,4.2,2h15.5c1,0,1.9,0.8,1.9,1.9S20.7,5.8,19.7,5.8
			L19.7,5.8z"/>
	</g>
	<g id="Group_176" transform="translate(890.198 119.983)">
		<path id="Path_184" class="st0" d="M10.5,4.3H3.8c-1,0-1.9-0.8-1.9-1.8c0-1,0.8-1.9,1.8-1.9c0,0,0.1,0,0.1,0h6.7
			c1,0,1.9,0.9,1.8,1.9C12.3,3.5,11.5,4.3,10.5,4.3z"/>
	</g>
	<g id="Group_178" transform="translate(874.478 109.995)">
		<g id="Group_177">
			<path id="Path_185" class="st0" d="M27,5.1H4.9c-1,0-1.9-0.9-1.8-1.9c0-1,0.8-1.8,1.8-1.8H27c1,0,1.9,0.9,1.8,1.9
				C28.8,4.2,28,5,27,5.1z"/>
		</g>
	</g>
</g>
</svg>
